<svg width="300" height="127" viewBox="0 0 300 127" xmlns="http://www.w3.org/2000/svg">
<defs>
<linearGradient id="bgGradient" x1="0%" y1="0%" x2="100%" y2="100%">
<stop offset="0%" style="stop-color:#0d1117;stop-opacity:1" />
<stop offset="100%" style="stop-color:#161b22;stop-opacity:1" />
</linearGradient>
</defs>
<style>
text { font-family: -apple-system, BlinkMacSystemFont, "Segoe UI", Helvetica, Arial, sans-serif; font-size: 11px; fill: #c9d1d9; }
.title { font-weight: 600; font-size: 14px; fill: #f0f6fc; }
.bg { fill: url(#bgGradient); stroke: #bcc4cdff; stroke-width: 4; rx: 6; }
.bar { rx: 3; }
.label { fill: #f0f6fc; font-weight: 500; }
.percent { fill: #8b949e; }
.track { fill: none; stroke: #30363d; stroke-width: 1; rx: 3; }
</style>
<rect x="0" y="0" width="300" height="127" class="bg" />
<text x="15" y="27" class="title">Most Used Languages</text>
<rect x="15" y="40" width="140" height="8" class="track" />
<rect x="15" y="40" width="86.52" height="8" class="bar" fill="#f1e05a" rx="3" />
<text x="163" y="47" class="label">JavaScript</text>
<text x="285" y="47" text-anchor="end" class="percent">61.8%</text>
<rect x="15" y="58" width="140" height="8" class="track" />
<rect x="15" y="58" width="38.220000000000006" height="8" class="bar" fill="#e34c26" rx="3" />
<text x="163" y="65" class="label">HTML</text>
<text x="285" y="65" text-anchor="end" class="percent">27.3%</text>
<rect x="15" y="76" width="140" height="8" class="track" />
<rect x="15" y="76" width="8.4" height="8" class="bar" fill="#563d7c" rx="3" />
<text x="163" y="83" class="label">CSS</text>
<text x="285" y="83" text-anchor="end" class="percent">6.0%</text>
<rect x="15" y="94" width="140" height="8" class="track" />
<rect x="15" y="94" width="6.86" height="8" class="bar" fill="#3572A5" rx="3" />
<text x="163" y="101" class="label">Python</text>
<text x="285" y="101" text-anchor="end" class="percent">4.9%</text>
</svg>